# xmcd
#
# Track frame offsets: 
#        150
#        17003
#        34271
#        59240
#        78022
#        95974
#        111123
#        131045
#        149076
#        170149
#        186564
#        203354
#
# Disc length: 2936 seconds
#
# Revision: 0
# Processed by: cddbd v1.5.1PL0 Copyright (c) Steve Scherf et al.
# Submitted via: ExactAudioCopy v0.95a3
#
DISCID=b70b760c
DTITLE=Kristin Berglund - Women Rocked The Cradle Of The Blues
DYEAR=2004
DGENRE=Blues
TTITLE0=Women Rocked The Cradle Of The Blues
TTITLE1=The Mysterious Lady Day
TTITLE2=I've Been Down There
TTITLE3=Silver Dollar Bracelet
TTITLE4=Hard Road To Go
TTITLE5=Libba
TTITLE6=The Uncrowned Queen Of The Blues
TTITLE7=Sippi's Blues
TTITLE8=Pearl
TTITLE9=The Mother Of The Blues
TTITLE10=Sister Rosetta
TTITLE11=At Both Ends
EXTD=
EXTT0=
EXTT1=
EXTT2=
EXTT3=
EXTT4=
EXTT5=
EXTT6=
EXTT7=
EXTT8=
EXTT9=
EXTT10=
EXTT11=
PLAYORDER=
